<?xml version="1.0" standalone="no"?>
<!DOCTYPE svg PUBLIC "-//W3C//DTD SVG 20010904//EN"
 "http://www.w3.org/TR/2001/REC-SVG-20010904/DTD/svg10.dtd">
<svg version="1.0" xmlns="http://www.w3.org/2000/svg"
 width="1080.000000pt" height="1080.000000pt" viewBox="0 0 1080.000000 1080.000000"
 preserveAspectRatio="xMidYMid meet">

<g transform="translate(0.000000,1080.000000) scale(0.100000,-0.100000)"
fill="#000000" stroke="none">
<path d="M5740 9850 c-116 -14 -166 -37 -229 -105 -56 -60 -74 -106 -74 -182
0 -48 6 -72 27 -107 14 -24 26 -50 26 -57 0 -6 -22 -41 -49 -78 -47 -63 -132
-222 -169 -313 -16 -40 -17 -131 -20 -1154 l-3 -1111 -262 -6 c-333 -8 -520
-27 -797 -83 -425 -86 -616 -176 -836 -398 -208 -209 -424 -527 -689 -1011
-103 -188 -165 -287 -203 -322 -62 -57 -203 -109 -657 -239 -371 -107 -645
-196 -757 -247 -159 -73 -275 -160 -381 -287 -200 -241 -309 -617 -294 -1025
4 -117 9 -153 31 -218 73 -216 239 -362 443 -390 l83 -11 10 -41 c79 -313 273
-555 532 -663 143 -60 207 -67 573 -67 291 0 338 2 400 19 175 46 345 165 461
321 66 90 140 236 174 345 l27 85 679 0 679 0 32 -95 c96 -285 245 -472 465
-585 154 -80 198 -87 546 -93 254 -3 314 -1 375 12 117 26 237 90 332 177 35
32 49 37 109 44 154 16 311 90 422 200 79 78 165 202 191 276 l18 49 451 0
452 0 28 -90 c32 -107 101 -229 181 -325 148 -175 387 -295 654 -326 125 -14
329 -7 449 16 339 66 612 319 723 670 23 71 57 269 57 330 l0 52 58 36 c127
78 220 218 247 372 11 59 14 176 15 450 0 533 -15 660 -95 832 -50 105 -119
201 -235 323 -45 47 -107 124 -139 171 -60 89 -74 125 -166 424 -72 233 -188
500 -290 665 -166 270 -325 427 -532 528 l-93 45 0 1128 c0 782 -3 1144 -11
1181 -15 72 -89 223 -155 314 -82 114 -80 108 -48 168 24 42 29 63 29 121 0
60 -4 78 -31 125 -37 65 -95 113 -167 137 -49 17 -133 18 -1292 19 -682 1
-1269 -2 -1305 -6z m1290 -929 c19 -14 57 -37 85 -51 34 -17 51 -32 53 -47 2
-12 24 -41 49 -63 27 -23 39 -40 30 -40 -8 0 -30 -18 -47 -40 -27 -34 -31 -46
-26 -74 6 -31 2 -37 -44 -76 -50 -42 -60 -66 -39 -87 9 -9 9 -23 -1 -58 -12
-42 -11 -48 13 -96 24 -46 26 -54 15 -94 -10 -38 -9 -51 14 -119 29 -85 27
-122 -13 -177 -15 -21 -24 -49 -25 -78 -1 -25 -7 -70 -13 -99 -10 -51 -9 -58
19 -123 40 -90 50 -183 25 -236 -10 -21 -26 -50 -37 -65 -10 -15 -30 -57 -43
-94 -13 -36 -31 -71 -40 -78 -8 -6 -17 -21 -20 -34 -2 -12 -7 -27 -11 -33 -5
-9 -11 -138 -16 -363 0 -15 5 -32 13 -37 11 -6 11 -11 1 -21 -6 -6 -12 -21
-12 -33 0 -12 -5 -26 -11 -32 -8 -8 -8 -17 0 -31 6 -11 11 -66 11 -122 0 -85
3 -105 20 -128 16 -23 18 -33 10 -67 -6 -22 -12 -80 -14 -130 -5 -115 -41
-313 -61 -335 -8 -9 -15 -21 -15 -27 0 -6 -7 -16 -15 -23 -8 -7 -15 -21 -15
-31 0 -11 -4 -19 -10 -19 -13 0 -13 26 0 70 14 45 14 162 0 220 -6 25 -22 69
-37 97 -25 48 -26 56 -15 87 10 27 10 45 2 77 -6 23 -10 63 -9 90 2 27 0 52
-4 55 -11 11 -8 92 3 99 15 9 12 67 -4 91 -8 11 -14 31 -13 44 0 14 -3 59 -7
101 -6 53 -5 79 3 83 19 12 12 40 -18 69 -38 35 -49 67 -27 79 10 6 14 17 11
31 -4 15 6 40 29 75 29 45 36 67 42 130 5 56 15 93 36 134 35 68 38 106 10
145 -12 17 -24 50 -28 74 -4 24 -13 49 -20 56 -13 14 -12 71 4 207 8 65 -4
116 -28 116 -13 0 -13 147 0 155 14 8 13 51 -2 78 -19 35 -19 79 -2 98 25 27
12 85 -27 125 -30 31 -31 36 -25 86 4 29 12 58 18 65 13 16 2 62 -21 88 -10
11 -21 32 -24 46 -7 27 -43 49 -79 49 -12 0 -29 7 -38 15 -30 27 -155 18 -174
-13 -10 -16 4 -41 20 -35 20 7 17 -10 -6 -40 -16 -20 -19 -34 -14 -67 8 -46
-1 -58 -72 -89 -39 -18 -41 -22 -47 -72 -12 -100 -9 -127 18 -151 33 -28 32
-44 -10 -124 -35 -68 -44 -121 -24 -141 6 -6 14 -43 17 -82 3 -42 10 -75 18
-82 8 -7 14 -31 14 -60 0 -26 5 -51 11 -55 6 -3 24 -35 39 -70 31 -67 30 -98
-5 -150 -8 -13 -15 -33 -15 -45 0 -12 -5 -39 -11 -59 -8 -27 -9 -47 -1 -68 8
-23 6 -35 -9 -59 -20 -31 -17 -65 4 -57 23 8 37 -12 39 -54 1 -24 -4 -48 -10
-54 -7 -7 -12 -19 -12 -29 0 -9 -8 -27 -18 -40 -31 -41 -63 -241 -41 -255 5
-3 9 -13 9 -23 0 -10 7 -42 16 -69 16 -49 16 -54 -4 -109 -16 -44 -21 -82 -21
-158 1 -55 -5 -127 -11 -160 -11 -54 -10 -69 10 -145 28 -105 36 -194 18 -188
-7 3 -17 24 -21 49 -5 24 -17 56 -28 70 -22 31 -33 72 -64 244 -27 147 -45
216 -61 236 -22 27 -26 58 -10 81 21 30 20 44 -4 68 -21 21 -27 74 -10 85 19
12 10 45 -14 55 -50 19 -59 73 -21 118 32 38 56 94 65 151 11 65 -4 188 -25
211 -15 16 -17 31 -11 87 4 47 2 85 -9 123 -8 30 -15 70 -15 88 0 44 -66 242
-90 271 -33 38 -22 144 31 296 24 67 27 109 13 162 -8 30 -14 62 -14 71 0 9
-16 30 -35 45 -33 26 -35 31 -35 87 0 56 -2 60 -39 89 -40 32 -111 55 -241 76
l-75 12 47 22 c25 12 70 26 98 31 28 5 72 19 97 30 27 12 67 20 99 20 44 0 59
5 86 28 41 34 95 72 103 72 3 0 10 -11 15 -25 14 -36 67 -65 119 -65 25 0 64
-9 89 -21 43 -21 43 -21 57 -2 8 11 29 26 47 34 18 7 39 19 46 26 13 13 24 15
102 18 29 1 48 9 69 29 24 23 39 28 95 31 37 2 73 8 79 13 7 5 26 13 44 16 17
4 37 14 44 22 15 18 43 10 89 -25z m660 -55 c0 -24 21 -37 83 -52 15 -3 33
-16 39 -28 6 -11 19 -27 30 -34 10 -7 18 -24 18 -38 0 -14 12 -35 30 -52 26
-23 31 -35 34 -87 1 -33 7 -68 11 -79 5 -11 4 -25 -3 -35 -20 -27 -39 -74 -46
-114 -4 -20 -17 -47 -30 -60 -13 -12 -26 -38 -30 -57 -7 -38 -43 -117 -57
-126 -12 -7 -12 -121 1 -129 6 -3 10 -19 10 -35 0 -16 -4 -32 -10 -35 -17 -11
-11 -54 10 -67 12 -8 20 -24 20 -39 0 -28 -28 -119 -41 -134 -12 -12 -12 -102
0 -109 14 -9 59 -107 71 -155 13 -51 2 -113 -38 -201 -31 -69 -32 -142 -3
-198 28 -55 27 -69 -14 -136 -37 -63 -42 -90 -21 -119 10 -13 12 -38 9 -90 -7
-104 -7 -114 2 -200 7 -71 6 -80 -13 -100 -23 -25 -53 -74 -82 -132 -14 -28
-18 -51 -13 -77 3 -24 1 -44 -7 -53 -18 -22 -30 -18 -30 10 0 15 -6 38 -13 53
-15 30 -14 79 2 132 16 51 13 99 -9 149 -26 57 -26 102 0 119 11 7 20 20 20
30 0 10 7 27 15 39 16 23 12 44 -16 81 -23 30 -15 77 19 114 23 26 25 34 24
120 0 51 4 127 10 168 9 68 8 81 -12 140 -12 36 -25 70 -29 75 -26 38 -31 84
-16 160 l15 78 -30 61 c-17 33 -30 66 -30 71 0 6 -9 31 -21 55 -17 35 -20 52
-13 89 15 86 11 127 -14 148 -30 24 -20 52 38 111 39 39 42 45 35 79 -10 60
-11 207 -1 221 5 8 5 22 -3 38 -6 14 -11 33 -11 43 0 30 -62 51 -149 51 -70 0
-81 3 -103 24 -17 18 -37 26 -71 28 -26 2 -47 5 -47 8 0 7 94 70 105 70 5 0
32 9 60 19 27 11 62 23 77 26 36 7 98 62 98 85 0 24 48 62 70 55 11 -4 23 3
34 20 21 31 36 32 36 1z m-2442 -2449 c3 -85 2 -87 -20 -87 -79 0 -494 -22
-598 -31 -258 -22 -467 -63 -641 -125 -242 -87 -443 -274 -633 -594 -130 -219
-341 -677 -367 -798 -13 -62 0 -118 38 -163 53 -62 -9 -59 1183 -59 720 0
1090 -3 1090 -10 0 -5 -4 -10 -10 -10 -16 0 -220 -120 -325 -191 -145 -99
-270 -213 -337 -307 -12 -18 -41 -19 -563 -25 -602 -7 -625 -9 -716 -68 -73
-46 -166 -150 -200 -222 -47 -102 -64 -211 -50 -331 13 -116 39 -170 103 -217
86 -62 94 -63 636 -67 l492 -3 0 -108 c0 -59 3 -142 6 -185 l7 -76 -1739 2
-1739 3 -52 24 c-58 26 -130 97 -161 157 -20 38 -34 87 -46 152 l-6 32 278 0
c326 0 478 11 558 41 44 17 76 40 134 98 118 116 150 199 151 390 1 167 -31
253 -116 311 -82 56 -137 64 -459 63 l-288 -1 28 29 c42 43 158 121 253 169
106 53 398 150 708 235 374 103 590 182 706 259 89 59 164 150 252 305 369
650 531 894 710 1074 211 211 451 306 930 367 210 27 667 59 780 54 18 -1 20
-9 23 -87z m3547 -62 c30 -19 93 -72 139 -118 194 -192 357 -517 530 -1057 76
-235 119 -308 288 -491 189 -204 243 -306 270 -506 19 -143 18 -849 -1 -918
-16 -57 -45 -119 -71 -153 l-18 -22 -11 52 c-41 194 -115 342 -226 454 -120
122 -243 176 -399 176 -106 0 -162 -14 -271 -66 -211 -103 -352 -292 -505
-678 -73 -186 -107 -235 -187 -275 -56 -27 -64 -28 -239 -31 l-182 -4 40 139
c120 427 176 902 164 1410 l-6 282 360 1 c407 0 486 9 604 64 89 41 125 71
159 134 67 123 52 257 -68 617 -131 393 -270 683 -380 795 l-54 55 -3 88 c-2
48 1 87 5 87 4 0 32 -16 62 -35z m-3545 -282 c3 -192 2 -585 -2 -589 -4 -3
-44 7 -90 23 -78 26 -93 28 -258 28 -173 0 -176 0 -272 -34 -277 -96 -488
-316 -588 -616 l-27 -80 -379 0 c-373 0 -379 0 -378 20 3 37 178 408 274 579
133 238 271 402 410 487 141 86 449 153 840 182 94 7 470 7 470 0z m3555 -423
c68 -173 188 -529 209 -620 9 -36 16 -84 16 -106 0 -83 -66 -123 -217 -132
l-92 -5 -3 504 c-2 277 -1 510 1 517 8 27 30 -13 86 -158z m-3737 -366 c30 -8
84 -28 119 -45 l63 -30 0 -79 c0 -73 -2 -80 -26 -99 -21 -16 -41 -21 -93 -21
-135 0 -258 -52 -369 -155 l-58 -54 -210 -5 c-118 -4 -215 -2 -223 3 -30 19
43 169 134 276 50 58 153 139 220 173 44 22 140 49 195 56 56 6 187 -4 248
-20z m2799 -751 c4 -10 7 -184 8 -388 0 -297 -4 -400 -18 -520 -30 -246 -89
-541 -159 -794 l-31 -114 -555 7 c-306 3 -557 8 -559 10 -2 2 -8 54 -14 116
-20 215 -94 421 -203 567 -94 124 -242 224 -374 252 -187 39 -405 -13 -562
-134 -172 -133 -291 -306 -415 -602 -26 -62 -60 -131 -76 -153 l-29 -40 -145
0 -144 0 -5 33 c-11 71 -14 347 -5 449 22 250 86 434 225 644 106 160 283 296
590 450 174 89 182 92 225 83 70 -13 307 -10 379 5 106 23 176 54 227 101 l48
44 793 1 c746 0 793 -1 799 -17z m-3389 -748 c3 -2 -4 -26 -15 -52 -34 -79
-62 -172 -86 -283 l-22 -105 -494 0 -493 0 -24 28 c-20 24 -24 39 -24 96 0
100 22 160 80 224 79 87 93 91 325 97 210 6 746 3 753 -5z m-3033 -10 c22 -8
39 -25 46 -42 17 -44 5 -180 -21 -241 -23 -54 -81 -114 -128 -134 -18 -8 -147
-13 -379 -16 l-353 -4 0 35 c0 20 11 91 25 159 22 113 33 152 64 231 l11 27
350 0 c284 0 357 -3 385 -15z"/>
<path d="M1945 3831 c-40 -17 -60 -51 -60 -102 0 -37 5 -54 23 -71 l23 -23
495 -3 495 -3 29 30 c42 41 42 98 1 143 l-29 33 -479 2 c-263 1 -487 -2 -498
-6z"/>
<path d="M1859 3477 c-57 -38 -64 -113 -14 -163 l24 -24 490 0 490 0 26 23
c31 27 43 84 25 127 -25 60 -23 60 -538 60 l-469 0 -34 -23z"/>
<path d="M7309 4311 c-21 -22 -29 -39 -29 -66 0 -43 22 -90 49 -105 11 -5 78
-10 150 -10 129 0 131 0 163 28 27 25 31 36 31 77 0 41 -4 52 -31 77 -32 28
-33 28 -168 28 l-136 0 -29 -29z"/>
</g>
</svg>
